<?xml version="1.0" encoding="utf-8"?>
<!-- Generator: Adobe Illustrator 16.0.0, SVG Export Plug-In . SVG Version: 6.00 Build 0)  -->
<!DOCTYPE svg PUBLIC "-//W3C//DTD SVG 1.1//EN" "http://www.w3.org/Graphics/SVG/1.1/DTD/svg11.dtd">
<svg version="1.1" id="Ebene_1" xmlns="http://www.w3.org/2000/svg" xmlns:xlink="http://www.w3.org/1999/xlink" x="0px" y="0px"
	 width="256px" height="256px" viewBox="0 0 256 256" enable-background="new 0 0 256 256" xml:space="preserve">
<rect fill="#FF8700" width="256" height="256"/>
<g id="ICON">
	<g id="logo_main" display="none">
		<path display="inline" fill="#FFFFFF" d="M144.938,101.833c0-3.675-2.736-5.611-5.485-5.611c-6.521,0-22.876,8.081-26.431,23.757
			c1.904,0.633,2.006,0.551,3.33-0.769c2.196-2.216,8.379-8.344,15.815-8.344C135.295,110.866,144.938,109.04,144.938,101.833
			 M178.215,107.086c0,0-2.593-1.872-4.629-2.312c-4.736,2.487-14.868,13.344-14.868,27.375c1.89,0.91,3.188,3.125,3.457,3.662
			c-1.675,1.328-3.296,1.299-7.051-0.795c-2.183-1.229-3.657-3.32-3.921-5.01c-1.411-8.511,4.722-24.887,16.449-31.123
			c3.502-1.865,7.477,1.37,8.877,2.715C179.693,104.605,178.387,106.817,178.215,107.086 M172.336,86.799
			c0,1.321-0.342,6.489-4.38,8.516c-7.733,3.896-18.247,8.262-19.829,29.227c-1.426-0.127-4.834-0.195-5.913,0.283
			c-2.217-2.188-4.569-3.352-7.344-3.352c-5.039,0-7.612,3.894-5.537,8.661c-2.774,0-4.423-0.502-7.242-1.264
			c1.759-5.003,4.199-8.937,6.188-10.763c-0.387-0.303-0.752-0.713-1.041-1.088c-3.521,0.426-9.463,6.16-11.602,9.646
			c-4.627-1.733-9.043-3.496-13.697-3.496c-0.104,0-0.204,0.013-0.292,0.013c10.241-22.905,25.356-34.09,45.425-34.09
			c6.895,0,13.97,0.071,18.656-14.006c0.162-0.503,0.32-0.654,0.469-0.688c0.152-0.014,0.572-0.116,0.742-0.141
			c0.177-0.029,0.381-0.059,0.592,0.199C169.157,76.42,172.336,79.836,172.336,86.799 M101.939,125.908
			c9.297,0,17.619,6.966,28.59,6.966c2.025,0,1.537-0.021,3.755-0.235c0.049-0.361,0.024-0.977-0.146-1.431
			c-0.229,0-2.711-1.229-2.711-3.787c0-2.563,2.344-3.516,4.036-3.516c2.251,0,5.664,2.463,5.664,8.292
			c0,6.632-7.063,9.996-15.537,9.996c-8.409,0-15.943-3.229-22.374-6.92c-2.902,6.783-10.858,29.004-26.848,29.004
			c-10.438,0-16.746-8.555-16.746-15.887c0-5.914,4.033-12.382,10.639-12.382c4.839,0,7.998,2.524,7.998,7.089
			c0,4.488-3.603,5.854-5.114,5.854c-0.144,0.268-0.408,0.875-0.495,1.432c0.605,0.238,1.845,0.418,2.539,0.418
			C85.654,150.802,80.188,125.908,101.939,125.908 M106.453,139.904c3.485,1.768,7.216,3.312,11.25,4.229
			c-1.49,4.125-4.932,8.152-9.146,6.42C104.412,148.835,105.39,143.604,106.453,139.904 M119.693,144.527
			c1.931,0.347,3.902,0.521,5.899,0.521c0.763,0,1.694-0.012,2.412-0.066c0,2.947,0.917,4.607,1.432,5.47
			c0.459,0.067,1.021-0.039,1.338-0.333c-0.078-0.354-0.061-0.645-0.061-0.82c0-0.586,0.105-3.663,3.604-3.663
			c2.147,0,3.871,1.886,3.871,4.548c0,5.475-5.215,6.92-7.847,6.92C126.236,157.104,120.447,153.732,119.693,144.527 M208,128.447
			C208,84.015,172.193,48,128.01,48C83.825,48,48,84.015,48,128.447c0,40.607,30.164,74.24,68.148,79.553
			c24.303-41.777,50.202-48.848,50.202-66.771c0-4.777-2.026-8.756-4.226-10.392c0.78-9.862,7.146-19.468,12.278-22.656
			c8.933,4.861,19.029,14.409,19.029,28.308c0,28.637-24.968,41.745-28.767,63.465C190.402,186.595,208,159.577,208,128.447"/>
	</g>
</g>
<g id="EXT:cms" display="none">
	<g id="logo_main_Kopie" display="inline">
		<path fill="#FFFFFF" d="M161.312,117.833c0-3.675-2.738-5.611-5.487-5.611c-6.522,0-22.876,8.081-26.431,23.756
			c1.902,0.633,2.006,0.551,3.33-0.771c2.194-2.216,8.379-8.344,15.813-8.344C151.67,126.866,161.312,125.04,161.312,117.833
			 M194.59,123.086c0,0-2.593-1.872-4.629-2.312c-4.736,2.487-14.868,13.343-14.868,27.375c1.89,0.91,3.188,3.125,3.457,3.662
			c-1.675,1.328-3.296,1.299-7.051-0.795c-2.183-1.229-3.657-3.32-3.921-5.01c-1.411-8.511,4.722-24.887,16.449-31.123
			c3.502-1.865,7.477,1.37,8.877,2.715C196.068,120.606,194.762,122.818,194.59,123.086 M188.711,102.799
			c0,1.321-0.342,6.489-4.38,8.516c-7.733,3.896-18.247,8.261-19.829,29.226c-1.426-0.127-4.834-0.195-5.913,0.283
			c-2.217-2.188-4.569-3.352-7.344-3.352c-5.039,0-7.612,3.894-5.537,8.659c-2.774,0-4.423-0.502-7.242-1.264
			c1.759-5.003,4.199-8.938,6.188-10.765c-0.387-0.303-0.752-0.713-1.041-1.088c-3.521,0.426-9.463,6.16-11.602,9.646
			c-4.629-1.732-9.042-3.496-13.699-3.496c-0.104,0-0.204,0.014-0.292,0.014c10.241-22.906,25.356-34.091,45.422-34.091
			c6.896,0,13.972,0.071,18.656-14.006c0.162-0.503,0.322-0.654,0.469-0.688c0.152-0.014,0.572-0.117,0.742-0.141
			c0.178-0.029,0.381-0.059,0.592,0.199C185.532,92.42,188.711,95.836,188.711,102.799 M118.315,141.908
			c9.297,0,17.619,6.966,28.589,6.966c2.025,0,1.537-0.021,3.755-0.235c0.049-0.361,0.024-0.977-0.146-1.431
			c-0.229,0-2.711-1.229-2.711-3.787c0-2.563,2.344-3.516,4.036-3.516c2.251,0,5.664,2.463,5.664,8.292
			c0,6.632-7.063,9.996-15.537,9.996c-8.407,0-15.943-3.229-22.374-6.92c-2.902,6.783-10.858,29.004-26.848,29.004
			c-10.438,0-16.746-8.555-16.746-15.887c0-5.914,4.033-12.382,10.639-12.382c4.839,0,7.998,2.524,7.998,7.089
			c0,4.488-3.603,5.854-5.114,5.854c-0.144,0.268-0.408,0.875-0.495,1.432c0.605,0.238,1.845,0.418,2.539,0.418
			C102.029,166.802,96.563,141.908,118.315,141.908 M122.828,155.904c3.486,1.768,7.216,3.312,11.25,4.229
			c-1.49,4.125-4.932,8.152-9.146,6.42C120.787,164.835,121.765,159.604,122.828,155.904 M136.068,160.527
			c1.931,0.347,3.902,0.521,5.897,0.521c0.765,0,1.694-0.012,2.412-0.066c0,2.947,0.917,4.607,1.433,5.47
			c0.459,0.067,1.021-0.039,1.338-0.333c-0.078-0.354-0.062-0.645-0.062-0.82c0-0.586,0.104-3.663,3.604-3.663
			c2.146,0,3.871,1.886,3.871,4.548c0,5.475-5.215,6.92-7.848,6.92C142.611,173.104,136.822,169.732,136.068,160.527
			 M224.375,144.447c0-44.432-35.807-80.447-79.99-80.447c-44.185,0-80.01,36.015-80.01,80.447c0,40.607,30.164,74.24,68.148,79.553
			c24.303-41.777,50.201-48.848,50.201-66.771c0-4.777-2.026-8.756-4.227-10.392c0.779-9.862,7.146-19.468,12.277-22.656
			c8.934,4.861,19.029,14.409,19.029,28.307c0,28.637-24.967,41.746-28.766,63.465C206.777,202.595,224.375,175.577,224.375,144.447
			"/>
	</g>
</g>
<g id="EXT:newlettersubscription" display="none">
	<g id="envelope" display="inline">
		<path fill="#FFFFFF" d="M196.158,138.43c-11.143,7.717-22.357,15.426-33.428,23.217c-4.644,3.211-12.5,9.783-18.283,9.783h-0.073
			h-0.073c-5.785,0-13.64-6.572-18.285-9.783c-11.069-7.791-22.284-15.5-33.354-23.217c-5.071-3.432-12.288-11.503-12.288-17.999
			c0-7.004,3.785-13.002,11.429-13.002h105.144c6.215,0,11.428,5.145,11.428,11.429C208.375,126.859,202.443,134.07,196.158,138.43z
			 M208.375,196.57c0,6.285-5.145,11.43-11.428,11.43H91.804c-6.285,0-11.429-5.145-11.429-11.43v-56.715
			c2.145,2.357,4.571,4.432,7.216,6.218c11.856,8.069,23.857,16.141,35.499,24.643c5.998,4.425,13.426,9.854,21.21,9.854h0.073
			h0.072c7.785,0,15.216-5.43,21.212-9.854c11.643-8.43,23.643-16.573,35.573-24.643c2.572-1.787,4.996-3.858,7.144-6.218
			L208.375,196.57L208.375,196.57z"/>
	</g>
	<g display="inline">
		<g>
			<path fill="#FFFFFF" d="M231.107,218.721c0,6.687-5.424,12.107-12.107,12.107h-40.359c-6.684,0-12.104-5.424-12.104-12.107
				v-40.359c0-6.682,5.424-12.104,12.104-12.104H219c6.684,0,12.107,5.427,12.107,12.104V218.721z M221.145,189.671
				c1.051-1.053,1.051-2.731,0-3.784l-4.289-4.287c-1.051-1.053-2.729-1.053-3.783,0l-19.633,19.633l-8.871-8.871
				c-1.049-1.051-2.73-1.051-3.781,0l-4.287,4.289c-1.053,1.054-1.053,2.73,0,3.783l15.05,15.049c1.054,1.056,2.733,1.056,3.784,0
				L221.145,189.671z"/>
		</g>
	</g>
	<g display="inline">
		<path fill="#4F4D40" d="M221.145,189.671c1.051-1.053,1.051-2.731,0-3.784l-4.289-4.287c-1.051-1.053-2.729-1.053-3.783,0
			l-19.633,19.633l-8.871-8.871c-1.049-1.051-2.73-1.051-3.781,0l-4.287,4.289c-1.053,1.054-1.053,2.73,0,3.783l15.05,15.049
			c1.054,1.056,2.733,1.056,3.784,0L221.145,189.671z"/>
	</g>
</g>
<g id="EXT:xt_x5F_cal" display="none">
	<g id="cal_1_" display="inline">
		<path fill="#FFFFFF" d="M208.375,198.182c0,5.369-4.449,9.818-9.818,9.818H90.552c-5.369,0-9.818-4.449-9.818-9.818V99.996
			c0-5.37,4.449-9.819,9.818-9.819h9.819v-7.364c0-6.75,5.522-12.272,12.273-12.272h4.909c6.75,0,12.272,5.523,12.272,12.272v7.364
			h29.454v-7.364c0-6.75,5.525-12.272,12.271-12.272h4.91c6.75,0,12.271,5.523,12.271,12.272v7.364h9.818
			c5.368,0,9.817,4.449,9.817,9.819v98.186H208.375z M198.557,198.182v-78.549H90.552v78.549H198.557z M120.008,82.812
			c0-1.38-1.074-2.454-2.454-2.454h-4.909c-1.381,0-2.455,1.074-2.455,2.454v22.092c0,1.38,1.074,2.455,2.455,2.455h4.909
			c1.38,0,2.454-1.074,2.454-2.455V82.812z M178.92,82.812c0-1.38-1.074-2.454-2.455-2.454h-4.91c-1.38,0-2.453,1.074-2.453,2.454
			v22.092c0,1.38,1.073,2.455,2.453,2.455h4.91c1.381,0,2.455-1.074,2.455-2.455V82.812z"/>
	</g>
</g>
<g id="EXT:reg2cal" display="none">
	<g id="cal" display="inline">
		<path fill="#FFFFFF" d="M208.375,198.182c0,5.369-4.449,9.818-9.818,9.818H90.552c-5.369,0-9.818-4.449-9.818-9.818V99.996
			c0-5.37,4.449-9.819,9.818-9.819h9.819v-7.364c0-6.75,5.522-12.272,12.273-12.272h4.909c6.75,0,12.272,5.523,12.272,12.272v7.364
			h29.454v-7.364c0-6.75,5.525-12.272,12.271-12.272h4.91c6.75,0,12.271,5.523,12.271,12.272v7.364h9.818
			c5.368,0,9.817,4.449,9.817,9.819v98.186H208.375z M198.557,198.182v-78.549H90.552v78.549H198.557z M120.008,82.812
			c0-1.38-1.074-2.454-2.454-2.454h-4.909c-1.381,0-2.455,1.074-2.455,2.454v22.092c0,1.38,1.074,2.455,2.455,2.455h4.909
			c1.38,0,2.454-1.074,2.454-2.455V82.812z M178.92,82.812c0-1.38-1.074-2.454-2.455-2.454h-4.91c-1.38,0-2.453,1.074-2.453,2.454
			v22.092c0,1.38,1.073,2.455,2.453,2.455h4.91c1.381,0,2.455-1.074,2.455-2.455V82.812z"/>
	</g>
	<g id="check" display="inline">
		<path fill="#FFFFFF" d="M166.796,218.252c-26.261,0-47.566-21.307-47.566-47.566c0-26.261,21.306-47.564,47.566-47.564
			c26.261,0,47.565,21.306,47.565,47.564C214.361,196.945,193.057,218.252,166.796,218.252z M197.641,157.803l-5.637-5.574
			c-0.742-0.744-1.734-1.177-2.787-1.177s-2.044,0.433-2.787,1.177l-25.27,25.207l-13.998-13.996
			c-0.743-0.744-1.734-1.178-2.787-1.178s-2.044,0.434-2.787,1.178l-5.636,5.574c-0.743,0.742-1.115,1.795-1.115,2.848
			c0,1.056,0.372,2.048,1.115,2.787l22.421,22.422c0.743,0.742,1.796,1.179,2.787,1.179c1.053,0,2.105-0.437,2.849-1.179
			l33.632-33.631c0.742-0.741,1.114-1.731,1.114-2.787C198.755,159.6,198.383,158.546,197.641,157.803z"/>
	</g>
</g>
<g>
	<path fill="#FFFFFF" d="M167.861,157.703c-2.3,0.768-4.217,0.768-6.517,0.768c-19.931,0-49.443-69.756-49.443-93.136
		c0-8.432,1.917-11.499,4.983-13.799c-24.529,3.067-54.041,11.882-63.24,23.381c-2.299,3.066-3.448,7.282-3.448,13.031
		c0,36.412,38.71,118.815,66.306,118.815C129.15,206.763,150.23,186.066,167.861,157.703"/>
	<path fill="#FFFFFF" d="M155.213,49.237c25.296,0,50.592,4.216,50.592,18.398c0,29.128-18.396,64.008-27.595,64.008
		c-16.865,0-37.944-46.377-37.944-69.756C140.266,51.153,144.481,49.237,155.213,49.237"/>
</g>
</svg>
